<svg xmlns="http://www.w3.org/2000/svg" version="1.1" xmlns:xlink="http://www.w3.org/1999/xlink" xmlns:svgjs="http://svgjs.dev/svgjs" width="1900" height="986" preserveAspectRatio="none" viewBox="0 0 1900 986"><g mask="url(&quot;#SvgjsMask1050&quot;)" fill="none"><path d="M-183.14 694.16 a274.6 274.6 0 1 0 549.2 0 a274.6 274.6 0 1 0 -549.2 0z" fill="rgba(247, 194, 94, 0.11)" class="triangle-float1"></path><path d="M1485.61 400.57 a255.27 255.27 0 1 0 510.54 0 a255.27 255.27 0 1 0 -510.54 0z" fill="rgba(247, 194, 94, 0.11)" class="triangle-float1"></path><path d="M-310.15 219.49 a320.08 320.08 0 1 0 640.16 0 a320.08 320.08 0 1 0 -640.16 0z" fill="rgba(247, 194, 94, 0.11)" class="triangle-float2"></path><path d="M764.521,1026.774C819.768,1025.741,873.765,1000.825,900.027,952.208C925.21,905.59,911.899,850.054,884.472,804.72C858.163,761.234,815.337,729.188,764.521,728.233C712.085,727.247,664.477,755.701,636.498,800.059C606.336,847.879,592.149,908.211,619.949,957.442C648.116,1007.322,707.248,1027.844,764.521,1026.774" fill="rgba(247, 194, 94, 0.11)" class="triangle-float2"></path><path d="M1818.158,813.478C1903.278,819.714,1990.969,781.085,2031.493,705.971C2070.483,633.701,2040.957,548.979,1998.91,478.444C1958.143,410.057,1897.717,351.115,1818.158,348.098C1733.761,344.898,1649.802,388.25,1611.991,463.771C1577.072,533.516,1613.258,611.039,1652.87,678.23C1691.62,743.959,1742.061,807.903,1818.158,813.478" fill="rgba(247, 194, 94, 0.11)" class="triangle-float2"></path><path d="M1310.98 685.48 a197.6 197.6 0 1 0 395.2 0 a197.6 197.6 0 1 0 -395.2 0z" fill="rgba(247, 194, 94, 0.11)" class="triangle-float3"></path><path d="M1824.438,400.69C1890.131,402.241,1947.554,360.027,1980.32,303.068C2012.989,246.276,2018.936,176.429,1986.037,119.77C1953.267,63.334,1889.617,31.348,1824.438,34.607C1764.243,37.617,1717.628,81.823,1688.603,134.644C1660.809,185.224,1654.559,244.596,1680.803,295.997C1709.679,352.553,1760.955,399.191,1824.438,400.69" fill="rgba(247, 194, 94, 0.11)" class="triangle-float3"></path><path d="M1326.9 407.56 a241.82 241.82 0 1 0 483.64 0 a241.82 241.82 0 1 0 -483.64 0z" fill="rgba(247, 194, 94, 0.11)" class="triangle-float3"></path><path d="M1258.311,366.755C1326.016,368.789,1394.136,345.242,1430.95,288.383C1471.003,226.521,1479.252,146.246,1442.404,82.424C1405.556,18.602,1331.918,-14.245,1258.311,-10.633C1190.475,-7.305,1135.234,39.262,1103.056,99.074C1072.682,155.533,1070.585,223.065,1102.751,278.523C1134.807,333.792,1194.447,364.836,1258.311,366.755" fill="rgba(247, 194, 94, 0.11)" class="triangle-float3"></path><path d="M1484.7 287.09 a206.21 206.21 0 1 0 412.42 0 a206.21 206.21 0 1 0 -412.42 0z" fill="rgba(247, 194, 94, 0.11)" class="triangle-float2"></path><path d="M977.873,646.934C1039.648,650.91,1104.236,627.538,1134.946,573.79C1165.47,520.368,1150.578,454.373,1117.564,402.453C1087.107,354.555,1034.606,324.968,977.873,326.766C924.034,328.473,878.636,363.624,852.723,410.848C827.845,456.186,828.085,509.907,852.306,555.599C878.288,604.611,922.515,643.371,977.873,646.934" fill="rgba(247, 194, 94, 0.11)" class="triangle-float3"></path><path d="M1027.812,865.366C1093.229,870.95,1158.82,838.155,1191.048,780.954C1222.777,724.639,1213.03,654.241,1176.998,600.578C1144.767,552.576,1085.58,535.427,1027.812,537.844C974.653,540.068,924.563,565.672,898.787,612.217C873.747,657.433,883.156,710.626,906.627,756.676C933.037,808.492,969.865,860.42,1027.812,865.366" fill="rgba(247, 194, 94, 0.11)" class="triangle-float3"></path><path d="M739.75 204.55 a321.02 321.02 0 1 0 642.04 0 a321.02 321.02 0 1 0 -642.04 0z" fill="rgba(247, 194, 94, 0.11)" class="triangle-float3"></path><path d="M949.91 600.77 a171.8 171.8 0 1 0 343.6 0 a171.8 171.8 0 1 0 -343.6 0z" fill="rgba(247, 194, 94, 0.11)" class="triangle-float1"></path></g><defs><mask id="SvgjsMask1050"><rect width="1900" height="986" fill="#ffffff"></rect></mask><style>
                @keyframes float1 {
                    0%{transform: translate(0, 0)}
                    50%{transform: translate(-10px, 0)}
                    100%{transform: translate(0, 0)}
                }

                .triangle-float1 {
                    animation: float1 5s infinite;
                }

                @keyframes float2 {
                    0%{transform: translate(0, 0)}
                    50%{transform: translate(-5px, -5px)}
                    100%{transform: translate(0, 0)}
                }

                .triangle-float2 {
                    animation: float2 4s infinite;
                }

                @keyframes float3 {
                    0%{transform: translate(0, 0)}
                    50%{transform: translate(0, -10px)}
                    100%{transform: translate(0, 0)}
                }

                .triangle-float3 {
                    animation: float3 6s infinite;
                }
            </style></defs></svg>