<svg xmlns="http://www.w3.org/2000/svg" xml:space="preserve" style="enable-background:new 0 0 1901 986" viewBox="0 0 1901 986"><path d="M0 935.5c69.9 16.1 135.3 33.2 196.9 50.5H0v-50.5zM1901 986V822c-75.4 56.3-150.5 112.6-232.3 164H1901z" style="fill:#e28e25"/><path d="M1901 637.6V822c-75.4 56.3-150.5 112.6-232.3 164H1378c201-96 351.5-229.5 523-348.4zM0 887.5v48c69.9 16.1 135.3 33.2 196.9 50.5h131C229 954.5 121.7 920.1 0 887.5z" style="fill:#e6a324"/><path d="M327.9 986C229 954.5 121.7 920.1 0 887.5v-43c179.9 54 328.3 107.6 470.6 141.5H327.9zm754.5-21.1c-24.4 7.9-48.2 15-71.5 21.1H1378c201.1-96 351.6-229.5 523-348.4v-171c-281.6 161.3-473.9 385.9-818.6 498.3z" style="fill:#e8b820"/><path d="M1010.9 986c23.3-6.2 47.1-13.2 71.5-21.1 344.7-112.4 537-337 818.6-498.3V314.9C1535.6 473 1340.1 752.5 941.1 882 580.1 999.2 343.5 914.5 0 805.3v39.3C179.9 898.5 328.3 952.1 470.6 986h540.3z" style="fill:#ebcd19"/><path d="M941.1 882c399.1-129.5 594.6-409 959.9-567.1V182.7c-461.3 139.6-653.7 472-1101.1 616.6C490.2 899.3 272.2 851.5 0 767v38.3C343.5 914.5 580.1 999.2 941.1 882z" style="fill:#f1de54"/><path d="M799.9 799.3c447.4-144.6 639.8-477 1101.1-616.6V67.6c-566.6 108.5-751.7 491.2-1242.1 649-254.8 82-447.4 64.2-658.9 8.4v42c272.2 84.5 490.2 132.3 799.9 32.3z" style="fill:#f7edaa"/><path d="M658.9 716.6c490.4-157.8 675.5-540.5 1242.1-649V0h-200.8C1180.7 123 990.7 482.6 518.1 634 320.5 697.3 160.4 700.9 0 673.3V725c211.5 55.8 404.1 73.6 658.9-8.4z" style="fill:#fff"/><path d="M518.1 634C990.7 482.6 1180.7 123 1700.2 0h-378.4C968.4 157.7 770.1 426.3 377.4 551.5 237.2 596.2 115.9 611 0 606v67.4c160.4 27.5 320.5 23.9 518.1-39.4z" style="fill:#cce3f2"/><path d="M377.4 551.5C770.1 426.3 968.4 157.7 1321.8 0h-295c-264.9 156.6-458.4 363.8-790 469.1C151.9 496 74 512.1 0 519.4V606c115.9 5 237.2-9.8 377.4-54.5z" style="fill:#97cae8"/><path d="M1026.8 0h-266C554.3 140.8 373.4 299.2 96.4 386.8 63.3 397.2 31.2 406.1 0 413.4v106c74-7.3 151.9-23.3 236.8-50.3C568.4 363.8 761.9 156.6 1026.8 0z" style="fill:#63afdd"/><path d="M760.8 0H505.9C353.4 108.9 202.3 218.3 0 289.9v123.5c31.2-7.3 63.3-16.1 96.4-26.6 277-87.6 457.9-246 664.4-386.8z" style="fill:#4c88b3"/><path d="M505.9 0H251C172.6 53.7 91.2 105.1 0 149.3v140.6C202.3 218.3 353.4 108.9 505.9 0z" style="fill:#366083"/><path d="M0 0v149.3C91.2 105.1 172.6 53.7 251 0H0z" style="fill:#1f3856"/></svg>