<svg xmlns="http://www.w3.org/2000/svg" version="1.1" xmlns:xlink="http://www.w3.org/1999/xlink" xmlns:svgjs="http://svgjs.dev/svgjs" width="1900" height="986" preserveAspectRatio="none" viewBox="0 0 1900 986"><g mask="url(&quot;#SvgjsMask1055&quot;)" fill="none"><rect width="1900" height="986" x="0" y="0" fill="rgba(0, 0, 0, 1)"></rect><path d="M1033 669L1032 1243" stroke-width="8" stroke="url(&quot;#SvgjsLinearGradient1056&quot;)" stroke-linecap="round" class="Down"></path><path d="M1158 221L1157 -326" stroke-width="8" stroke="url(&quot;#SvgjsLinearGradient1056&quot;)" stroke-linecap="round" class="Down"></path><path d="M340 162L339 492" stroke-width="10" stroke="url(&quot;#SvgjsLinearGradient1057&quot;)" stroke-linecap="round" class="Up"></path><path d="M255 59L254 739" stroke-width="8" stroke="url(&quot;#SvgjsLinearGradient1056&quot;)" stroke-linecap="round" class="Down"></path><path d="M1187 217L1186 -318" stroke-width="8" stroke="url(&quot;#SvgjsLinearGradient1057&quot;)" stroke-linecap="round" class="Up"></path><path d="M1110 511L1109 836" stroke-width="6" stroke="url(&quot;#SvgjsLinearGradient1056&quot;)" stroke-linecap="round" class="Down"></path><path d="M104 347L103 886" stroke-width="6" stroke="url(&quot;#SvgjsLinearGradient1056&quot;)" stroke-linecap="round" class="Down"></path><path d="M39 883L38 1159" stroke-width="8" stroke="url(&quot;#SvgjsLinearGradient1056&quot;)" stroke-linecap="round" class="Down"></path><path d="M1108 733L1107 245" stroke-width="6" stroke="url(&quot;#SvgjsLinearGradient1057&quot;)" stroke-linecap="round" class="Up"></path><path d="M1826 257L1825 -172" stroke-width="10" stroke="url(&quot;#SvgjsLinearGradient1057&quot;)" stroke-linecap="round" class="Up"></path><path d="M1882 945L1881 1503" stroke-width="6" stroke="url(&quot;#SvgjsLinearGradient1056&quot;)" stroke-linecap="round" class="Down"></path><path d="M1750 704L1749 163" stroke-width="6" stroke="url(&quot;#SvgjsLinearGradient1057&quot;)" stroke-linecap="round" class="Up"></path><path d="M537 385L536 -179" stroke-width="10" stroke="url(&quot;#SvgjsLinearGradient1057&quot;)" stroke-linecap="round" class="Up"></path><path d="M320 233L319 971" stroke-width="8" stroke="url(&quot;#SvgjsLinearGradient1057&quot;)" stroke-linecap="round" class="Up"></path><path d="M1562 889L1561 496" stroke-width="6" stroke="url(&quot;#SvgjsLinearGradient1057&quot;)" stroke-linecap="round" class="Up"></path><path d="M1517 395L1516 -26" stroke-width="6" stroke="url(&quot;#SvgjsLinearGradient1056&quot;)" stroke-linecap="round" class="Down"></path><path d="M427 570L426 1154" stroke-width="8" stroke="url(&quot;#SvgjsLinearGradient1057&quot;)" stroke-linecap="round" class="Up"></path><path d="M986 910L985 627" stroke-width="10" stroke="url(&quot;#SvgjsLinearGradient1056&quot;)" stroke-linecap="round" class="Down"></path><path d="M448 144L447 -183" stroke-width="10" stroke="url(&quot;#SvgjsLinearGradient1057&quot;)" stroke-linecap="round" class="Up"></path><path d="M605 930L604 673" stroke-width="8" stroke="url(&quot;#SvgjsLinearGradient1057&quot;)" stroke-linecap="round" class="Up"></path><path d="M1591 758L1590 1066" stroke-width="10" stroke="url(&quot;#SvgjsLinearGradient1057&quot;)" stroke-linecap="round" class="Up"></path><path d="M1501 358L1500 -83" stroke-width="10" stroke="url(&quot;#SvgjsLinearGradient1057&quot;)" stroke-linecap="round" class="Up"></path><path d="M659 675L658 367" stroke-width="8" stroke="url(&quot;#SvgjsLinearGradient1056&quot;)" stroke-linecap="round" class="Down"></path><path d="M1447 899L1446 1489" stroke-width="8" stroke="url(&quot;#SvgjsLinearGradient1056&quot;)" stroke-linecap="round" class="Down"></path><path d="M1828 659L1827 357" stroke-width="8" stroke="url(&quot;#SvgjsLinearGradient1057&quot;)" stroke-linecap="round" class="Up"></path><path d="M1462 312L1461 953" stroke-width="8" stroke="url(&quot;#SvgjsLinearGradient1057&quot;)" stroke-linecap="round" class="Up"></path><path d="M1796 182L1795 -374" stroke-width="10" stroke="url(&quot;#SvgjsLinearGradient1057&quot;)" stroke-linecap="round" class="Up"></path><path d="M1614 31L1613 334" stroke-width="6" stroke="url(&quot;#SvgjsLinearGradient1057&quot;)" stroke-linecap="round" class="Up"></path><path d="M937 982L936 564" stroke-width="10" stroke="url(&quot;#SvgjsLinearGradient1057&quot;)" stroke-linecap="round" class="Up"></path><path d="M886 939L885 542" stroke-width="10" stroke="url(&quot;#SvgjsLinearGradient1056&quot;)" stroke-linecap="round" class="Down"></path><path d="M1515 814L1514 223" stroke-width="8" stroke="url(&quot;#SvgjsLinearGradient1056&quot;)" stroke-linecap="round" class="Down"></path><path d="M669 502L668 1026" stroke-width="8" stroke="url(&quot;#SvgjsLinearGradient1057&quot;)" stroke-linecap="round" class="Up"></path><path d="M424 877L423 482" stroke-width="8" stroke="url(&quot;#SvgjsLinearGradient1056&quot;)" stroke-linecap="round" class="Down"></path><path d="M55 693L54 -16" stroke-width="10" stroke="url(&quot;#SvgjsLinearGradient1056&quot;)" stroke-linecap="round" class="Down"></path><path d="M1852 659L1851 1322" stroke-width="6" stroke="url(&quot;#SvgjsLinearGradient1057&quot;)" stroke-linecap="round" class="Up"></path><path d="M462 475L461 949" stroke-width="8" stroke="url(&quot;#SvgjsLinearGradient1056&quot;)" stroke-linecap="round" class="Down"></path><path d="M1042 563L1041 1285" stroke-width="10" stroke="url(&quot;#SvgjsLinearGradient1057&quot;)" stroke-linecap="round" class="Up"></path><path d="M1243 502L1242 1107" stroke-width="8" stroke="url(&quot;#SvgjsLinearGradient1056&quot;)" stroke-linecap="round" class="Down"></path><path d="M812 107L811 558" stroke-width="10" stroke="url(&quot;#SvgjsLinearGradient1056&quot;)" stroke-linecap="round" class="Down"></path><path d="M929 281L928 -63" stroke-width="6" stroke="url(&quot;#SvgjsLinearGradient1057&quot;)" stroke-linecap="round" class="Up"></path><path d="M800 840L799 219" stroke-width="6" stroke="url(&quot;#SvgjsLinearGradient1056&quot;)" stroke-linecap="round" class="Down"></path><path d="M1325 879L1324 1493" stroke-width="10" stroke="url(&quot;#SvgjsLinearGradient1057&quot;)" stroke-linecap="round" class="Up"></path><path d="M786 775L785 278" stroke-width="8" stroke="url(&quot;#SvgjsLinearGradient1056&quot;)" stroke-linecap="round" class="Down"></path><path d="M1291 873L1290 1260" stroke-width="8" stroke="url(&quot;#SvgjsLinearGradient1056&quot;)" stroke-linecap="round" class="Down"></path><path d="M266 758L265 494" stroke-width="10" stroke="url(&quot;#SvgjsLinearGradient1057&quot;)" stroke-linecap="round" class="Up"></path><path d="M1419 584L1418 1178" stroke-width="6" stroke="url(&quot;#SvgjsLinearGradient1056&quot;)" stroke-linecap="round" class="Down"></path><path d="M622 913L621 189" stroke-width="10" stroke="url(&quot;#SvgjsLinearGradient1057&quot;)" stroke-linecap="round" class="Up"></path><path d="M758 45L757 -509" stroke-width="10" stroke="url(&quot;#SvgjsLinearGradient1057&quot;)" stroke-linecap="round" class="Up"></path></g><defs><mask id="SvgjsMask1055"><rect width="1900" height="986" fill="#ffffff"></rect></mask><linearGradient x1="0%" y1="0%" x2="0%" y2="100%" id="SvgjsLinearGradient1056"><stop stop-color="rgba(255, 255, 255, 0)" offset="0"></stop><stop stop-color="rgba(255, 255, 255, 1)" offset="1"></stop></linearGradient><linearGradient x1="0%" y1="100%" x2="0%" y2="0%" id="SvgjsLinearGradient1057"><stop stop-color="rgba(255, 255, 255, 0)" offset="0"></stop><stop stop-color="rgba(255, 255, 255, 1)" offset="1"></stop></linearGradient></defs></svg>